<svg id="Layer_1" data-name="Layer 1" xmlns="http://www.w3.org/2000/svg" viewBox="0 0 442.05 285.87"><path d="M428.58,10.24a11,11,0,0,0-2-1.49A39,39,0,0,0,402.24,0H39.55A39,39,0,0,0,15.23,8.75a11,11,0,0,0-2,1.49A39.46,39.46,0,0,0,0,39.55V246.23a39.64,39.64,0,0,0,39.55,39.64h362.6a39.64,39.64,0,0,0,39.9-39.64V39.55a39.44,39.44,0,0,0-13.48-29.31ZM402.33,17.5a19.05,19.05,0,0,1,3.85,0L237.57,162.05a32.1,32.1,0,0,1-33.51,0L35.71,17.85a19.05,19.05,0,0,1,3.85,0Zm22.22,228.73a22.21,22.21,0,0,1-22.13,22.14H39.56a22.23,22.23,0,0,1-22.14-22.14V39.55a22.2,22.2,0,0,1,3.32-11.46L193.2,175.79l1.05.79a49.8,49.8,0,0,0,53.2,0l1.06-.79L421,28.09a22.24,22.24,0,0,1,3.58,11.46Z" style="fill:#ed9445"/></svg>