<svg id="Layer_1" data-name="Layer 1" xmlns="http://www.w3.org/2000/svg" viewBox="0 0 296.85 44.86"><path d="M24.36,21.77v3.28H21.59V21.58c0-4.72-1.83-8.31-6.68-8.31s-6.68,3.59-6.68,8.31V44.52c0,4.72,1.83,8.25,6.68,8.25s6.68-3.53,6.68-8.25V35H15.73V32.36h8.63v12c0,6.36-2.77,11.15-9.52,11.15S5.33,50.69,5.33,44.33V21.77c0-6.36,2.77-11.15,9.51-11.15S24.36,15.41,24.36,21.77Z" transform="translate(-5.33 -10.62)" style="fill:#7f7f7f"/><path d="M38.41,11c6.74,0,9.45,3.71,9.45,10v3.84c0,5.17-2,8.13-6.37,9.14,4.54,1,6.37,4.22,6.37,9v6.87c0,1.82.12,3.84,1.07,5.29h-3c-.75-1.32-.94-2.9-.94-5.29V42.88c0-5.86-3.21-7.5-8.25-7.5h-4.6V55.1h-2.9V11ZM36.77,32.73c5.16,0,8.19-1.45,8.19-7.37V21.2c0-4.72-1.83-7.56-6.62-7.56H32.11V32.73Z" transform="translate(-5.33 -10.62)" style="fill:#7f7f7f"/><path d="M68.46,31.41v2.65h-12V52.45H70.91V55.1H53.52V11H70.91v2.64H56.42V31.41Z" transform="translate(-5.33 -10.62)" style="fill:#7f7f7f"/><path d="M94.48,21.77v3.28H91.7V21.58c0-4.72-1.82-8.31-6.67-8.31s-6.68,3.59-6.68,8.31V44.52c0,4.72,1.82,8.25,6.68,8.25s6.67-3.53,6.67-8.25V35H85.84V32.36h8.64v12c0,6.36-2.78,11.15-9.52,11.15s-9.51-4.79-9.51-11.15V21.77c0-6.36,2.77-11.15,9.51-11.15S94.48,15.41,94.48,21.77Z" transform="translate(-5.33 -10.62)" style="fill:#7f7f7f"/><path d="M115,34.37l-3,4.79V55.1h-2.9V11H112V34.31L126.35,11h3l-12.6,20.54L130.2,55.1h-3Z" transform="translate(-5.33 -10.62)" style="fill:#7f7f7f"/><path d="M137.06,44.45c0,4.73,1.77,8.38,6.62,8.38s6.61-3.65,6.61-8.38V11H153V44.33c0,6.3-2.64,11.15-9.39,11.15s-9.45-4.85-9.45-11.15V11h2.9Z" transform="translate(-5.33 -10.62)" style="fill:#7f7f7f"/><path d="M167.11,11c6.81,0,9.45,4.28,9.45,10.71V26.5c0,7-3.21,10.45-10.2,10.45h-5.48V55.1H158V11Zm-.75,23.31c5.1,0,7.31-2.27,7.31-7.62V21.52c0-4.79-1.64-7.88-6.56-7.88h-6.23V34.31Z" transform="translate(-5.33 -10.62)" style="fill:#7f7f7f"/><path d="M190.17,11c6.81,0,9.45,4.28,9.45,10.71V26.5c0,7-3.21,10.45-10.21,10.45h-5.48V55.1H181V11Zm-.76,23.31c5.11,0,7.31-2.27,7.31-7.62V21.52c0-4.79-1.64-7.88-6.55-7.88h-6.24V34.31Z" transform="translate(-5.33 -10.62)" style="fill:#7f7f7f"/><path d="M207,11V55.1h-2.9V11Z" transform="translate(-5.33 -10.62)" style="fill:#7f7f7f"/><path d="M214.68,55.1H212V11h3.78L229,48.23V11h2.65V55.1h-3.22L214.68,15.79Z" transform="translate(-5.33 -10.62)" style="fill:#7f7f7f"/><path d="M255.5,21.77v3.28h-2.77V21.58c0-4.72-1.83-8.31-6.68-8.31s-6.68,3.59-6.68,8.31V44.52c0,4.72,1.83,8.25,6.68,8.25s6.68-3.53,6.68-8.25V35h-5.86V32.36h8.63v12c0,6.36-2.77,11.15-9.51,11.15s-9.52-4.79-9.52-11.15V21.77c0-6.36,2.78-11.15,9.52-11.15S255.5,15.41,255.5,21.77Z" transform="translate(-5.33 -10.62)" style="fill:#7f7f7f"/><path d="M275.28,31.41v2.65h-12V52.45h14.49V55.1H260.35V11h17.39v2.64H263.25V31.41Z" transform="translate(-5.33 -10.62)" style="fill:#7f7f7f"/><path d="M291.66,11c6.74,0,9.45,3.71,9.45,10v3.84c0,5.17-2,8.13-6.36,9.14,4.54,1,6.36,4.22,6.36,9v6.87a9.94,9.94,0,0,0,1.07,5.29h-3c-.76-1.32-1-2.9-1-5.29V42.88c0-5.86-3.21-7.5-8.25-7.5h-4.6V55.1h-2.9V11ZM290,32.73c5.17,0,8.19-1.45,8.19-7.37V21.2c0-4.72-1.82-7.56-6.61-7.56h-6.24V32.73Z" transform="translate(-5.33 -10.62)" style="fill:#7f7f7f"/></svg>