<svg id="Layer_1" data-name="Layer 1" xmlns="http://www.w3.org/2000/svg" viewBox="0 0 290.11 44.73"><path d="M25.92,21.83v2.9H24.53v-3c0-5.35-2-9.83-7.81-9.83s-7.88,4.48-7.88,9.83V44.33c0,5.35,2,9.76,7.88,9.76s7.81-4.41,7.81-9.76v-10H17.66V33.05h8.26V44.26c0,6.11-2.52,11.15-9.26,11.15s-9.2-5-9.2-11.15V21.83c0-6.11,2.52-11.15,9.2-11.15S25.92,15.72,25.92,21.83Z" transform="translate(-7.46 -10.68)" style="fill:#7f7f7f"/><path d="M39.65,11c6.55,0,9.07,3.84,9.07,9.89v4c0,5.42-2.14,8.38-7,9.26,4.91.76,7,4,7,8.82v6.93c0,1.7.19,3.84,1.2,5.23H48.41a10,10,0,0,1-1.07-5.23V42.94c0-6.49-3.91-8.19-9.64-8.19H32.28V55.1H30.89V11ZM37.7,33.43c6.11,0,9.64-1.58,9.64-8.38V21c0-5.35-2.08-8.69-7.75-8.69H32.28V33.43Z" transform="translate(-7.46 -10.68)" style="fill:#7f7f7f"/><path d="M69.2,32.1v1.26h-13V53.78H71.65V55.1H54.83V11H71.65v1.32H56.22V32.1Z" transform="translate(-7.46 -10.68)" style="fill:#7f7f7f"/><path d="M95,21.83v2.9H93.58v-3c0-5.35-2-9.83-7.82-9.83s-7.87,4.48-7.87,9.83V44.33c0,5.35,2,9.76,7.87,9.76s7.82-4.41,7.82-9.76v-10H86.71V33.05H95V44.26c0,6.11-2.52,11.15-9.26,11.15s-9.2-5-9.2-11.15V21.83c0-6.11,2.52-11.15,9.2-11.15S95,15.72,95,21.83Z" transform="translate(-7.46 -10.68)" style="fill:#7f7f7f"/><path d="M114.43,33.17l-3.34,5V55.1H109.7V11h1.39V35.88L127.47,11H129L115.31,31.85,130.12,55.1H128.6Z" transform="translate(-7.46 -10.68)" style="fill:#7f7f7f"/><path d="M136,44.26c0,5.3,1.89,9.89,7.75,9.89s7.75-4.59,7.75-9.89V11h1.32V44.2c0,6-2.4,11.21-9.07,11.21s-9.14-5.16-9.14-11.21V11H136Z" transform="translate(-7.46 -10.68)" style="fill:#7f7f7f"/><path d="M166.53,11c6.8,0,9.13,4.47,9.13,10.64v4.42c0,7-3.15,10.33-10.14,10.33h-6.3V55.1h-1.39V11Zm-1,24.06c6.17,0,8.76-2.7,8.76-8.94V21.58c0-5.42-1.83-9.26-7.75-9.26h-7.31V35.06Z" transform="translate(-7.46 -10.68)" style="fill:#7f7f7f"/><path d="M189.21,11c6.8,0,9.13,4.47,9.13,10.64v4.42c0,7-3.15,10.33-10.14,10.33h-6.3V55.1h-1.39V11Zm-1,24.06c6.17,0,8.76-2.7,8.76-8.94V21.58c0-5.42-1.83-9.26-7.75-9.26H181.9V35.06Z" transform="translate(-7.46 -10.68)" style="fill:#7f7f7f"/><path d="M204.58,11V55.1h-1.39V11Z" transform="translate(-7.46 -10.68)" style="fill:#7f7f7f"/><path d="M210.94,55.1h-1.32V11h1.95l15.5,41.26V11h1.32V55.1h-1.7L210.94,13Z" transform="translate(-7.46 -10.68)" style="fill:#7f7f7f"/><path d="M251.83,21.83v2.9h-1.39v-3c0-5.35-2-9.83-7.81-9.83s-7.88,4.48-7.88,9.83V44.33c0,5.35,2,9.76,7.88,9.76s7.81-4.41,7.81-9.76v-10h-6.87V33.05h8.26V44.26c0,6.11-2.52,11.15-9.26,11.15s-9.2-5-9.2-11.15V21.83c0-6.11,2.52-11.15,9.2-11.15S251.83,15.72,251.83,21.83Z" transform="translate(-7.46 -10.68)" style="fill:#7f7f7f"/><path d="M271.17,32.1v1.26h-13V53.78h15.43V55.1H256.8V11h16.82v1.32H258.19V32.1Z" transform="translate(-7.46 -10.68)" style="fill:#7f7f7f"/><path d="M287.29,11c6.56,0,9.08,3.84,9.08,9.89v4c0,5.42-2.15,8.38-7,9.26,4.92.76,7,4,7,8.82v6.93c0,1.7.19,3.84,1.19,5.23h-1.51A10,10,0,0,1,295,49.87V42.94c0-6.49-3.91-8.19-9.64-8.19h-5.42V55.1h-1.38V11Zm-2,22.43c6.11,0,9.64-1.58,9.64-8.38V21c0-5.35-2.08-8.69-7.75-8.69h-7.31V33.43Z" transform="translate(-7.46 -10.68)" style="fill:#7f7f7f"/></svg>