<?xml version="1.0" encoding="utf-8"?>
<!-- Generator: Adobe Illustrator 26.0.1, SVG Export Plug-In . SVG Version: 6.00 Build 0)  -->
<svg version="1.1" id="Layer_1" xmlns="http://www.w3.org/2000/svg" xmlns:xlink="http://www.w3.org/1999/xlink" x="0px" y="0px"
	 viewBox="0 0 283.7 50.8" style="enable-background:new 0 0 283.7 50.8;" xml:space="preserve">
<style type="text/css">
	.st0{enable-background:new    ;}
	.st1{fill:#7F7F7F;}
</style>
<g class="st0">
	<path class="st1" d="M8.4,26.6l-3,4.8v15.9H2.5V3.2h2.9v23.3L19.8,3.2h3L10.2,23.7l13.4,23.6h-3L8.4,26.6z"/>
</g>
<g class="st0">
	<path class="st1" d="M30.3,36.7c0,4.7,1.8,8.4,6.6,8.4s6.6-3.7,6.6-8.4V3.2h2.7v33.3c0,6.3-2.6,11.2-9.4,11.2s-9.5-4.9-9.5-11.2
		V3.2h2.9V36.7z"/>
	<path class="st1" d="M60.4,3.2c6.8,0,9.5,4.3,9.5,10.7v4.8c0,7-3.2,10.5-10.2,10.5h-5.5v18.1h-2.9V3.2H60.4z M59.6,26.5
		c5.1,0,7.3-2.3,7.3-7.6v-5.2c0-4.8-1.6-7.9-6.6-7.9h-6.2v20.7H59.6z"/>
	<path class="st1" d="M83.4,3.2c6.8,0,9.5,4.3,9.5,10.7v4.8c0,7-3.2,10.5-10.2,10.5h-5.5v18.1h-2.9V3.2H83.4z M82.7,26.5
		c5.1,0,7.3-2.3,7.3-7.6v-5.2c0-4.8-1.6-7.9-6.6-7.9h-6.2v20.7H82.7z"/>
	<path class="st1" d="M100.2,3.2v44.1h-2.9V3.2H100.2z"/>
	<path class="st1" d="M107.9,47.3h-2.6V3.2h3.8l13.2,37.2V3.2h2.6v44.1h-3.2L107.9,8V47.3z"/>
	<path class="st1" d="M148.7,14v3.3H146v-3.5c0-4.7-1.8-8.3-6.7-8.3s-6.7,3.6-6.7,8.3v22.9c0,4.7,1.8,8.3,6.7,8.3s6.7-3.5,6.7-8.3
		v-9.5h-5.9v-2.6h8.6v12c0,6.4-2.8,11.2-9.5,11.2s-9.5-4.8-9.5-11.2V14c0-6.4,2.8-11.2,9.5-11.2S148.7,7.6,148.7,14z"/>
	<path class="st1" d="M168.5,23.6v2.6h-12v18.4H171v2.6h-17.4V3.2H171v2.6h-14.5v17.8H168.5z"/>
	<path class="st1" d="M184.9,3.2c6.7,0,9.5,3.7,9.5,10V17c0,5.2-2,8.1-6.4,9.1c4.5,1,6.4,4.2,6.4,9V42c0,1.8,0.1,3.8,1.1,5.3h-3
		c-0.8-1.3-0.9-2.9-0.9-5.3v-6.9c0-5.9-3.2-7.5-8.3-7.5h-4.6v19.7h-2.9V3.2H184.9z M183.3,24.9c5.2,0,8.2-1.4,8.2-7.4v-4.2
		c0-4.7-1.8-7.6-6.6-7.6h-6.2v19.1H183.3z"/>
	<path class="st1" d="M214,37.5l-2.2,9.8h-2.6l9.6-44.2h4.2l9.8,44.2h-2.9l-2.2-9.8H214z M214.4,35h12.9l-6.5-28.5L214.4,35z"/>
	<path class="st1" d="M246.5,3.2c6.7,0,9.5,3.7,9.5,10V17c0,5.2-2,8.1-6.4,9.1c4.5,1,6.4,4.2,6.4,9V42c0,1.8,0.1,3.8,1.1,5.3h-3
		c-0.8-1.3-0.9-2.9-0.9-5.3v-6.9c0-5.9-3.2-7.5-8.3-7.5h-4.6v19.7h-2.9V3.2H246.5z M244.8,24.9c5.2,0,8.2-1.4,8.2-7.4v-4.2
		c0-4.7-1.8-7.6-6.6-7.6h-6.2v19.1H244.8z"/>
	<path class="st1" d="M269.2,47.3V5.9h-9V3.2H281v2.6h-8.9v41.5H269.2z"/>
</g>
</svg>
