<svg id="Layer_1" data-name="Layer 1" xmlns="http://www.w3.org/2000/svg" viewBox="0 0 384 280"><path d="M321.5,68V36a8,8,0,0,0-8-8H33.5a8,8,0,0,0-8,8V252a8,8,0,0,0,8,8h136" transform="translate(-17.5 -20)" style="fill:none;stroke:#999;stroke-linecap:round;stroke-linejoin:round;stroke-width:16px"/><line x1="8" y1="200" x2="152" y2="200" style="fill:none;stroke:#999;stroke-linecap:round;stroke-linejoin:round;stroke-width:16px"/><polyline points="104 272 104 272 152 272" style="fill:none;stroke:#999;stroke-linecap:round;stroke-linejoin:round;stroke-width:16px"/><line x1="128" y1="240" x2="128" y2="272" style="fill:none;stroke:#999;stroke-linecap:round;stroke-linejoin:round;stroke-width:16px"/><path d="M281.5,292h-80a8,8,0,0,1-8-8V100a8,8,0,0,1,8-8h144a8,8,0,0,1,8,8v24" transform="translate(-17.5 -20)" style="fill:none;stroke:#999;stroke-linecap:round;stroke-linejoin:round;stroke-width:16px"/><rect x="288" y="128" width="88" height="144" rx="8" style="fill:none;stroke:#999;stroke-linecap:round;stroke-linejoin:round;stroke-width:16px"/><line x1="328" y1="248" x2="336" y2="248" style="fill:none;stroke:#999;stroke-linecap:round;stroke-linejoin:round;stroke-width:16px"/><line x1="256" y1="248" x2="264" y2="248" style="fill:none;stroke:#999;stroke-linecap:round;stroke-linejoin:round;stroke-width:16px"/></svg>